<?xml version="1.0" encoding="utf-8"?>
<!-- Generator: Adobe Illustrator 25.4.1, SVG Export Plug-In . SVG Version: 6.00 Build 0)  -->
<svg version="1.1" id="Capa_1" xmlns="http://www.w3.org/2000/svg" xmlns:xlink="http://www.w3.org/1999/xlink" x="0px" y="0px"
	 width="299px" height="100px" viewBox="0 0 299 100" enable-background="new 0 0 299 100" xml:space="preserve">
<g>
	<g display="none">
		<g display="inline">
			<defs>
				<path id="SVGID_1_" d="M291.152,99.173l-1.39,0.513c-3.956,1.46-8.346-0.564-9.805-4.52l-30.456-82.539l0,0
					c8.763-3.233,18.488,1.249,21.721,10.012l24.546,66.521C297.257,93.199,295.191,97.682,291.152,99.173z"/>
			</defs>
			<clipPath id="SVGID_00000147920445616413263080000015746293625705089210_">
				<use xlink:href="#SVGID_1_"  overflow="visible"/>
			</clipPath>
			<polygon clip-path="url(#SVGID_00000147920445616413263080000015746293625705089210_)" fill="#8C6527" points="265.808,9.179 
				268.903,12.29 249.499,29.49 249.499,9.179 			"/>
			<polygon clip-path="url(#SVGID_00000147920445616413263080000015746293625705089210_)" fill="#8C6527" points="268.903,12.29 
				269.089,12.476 249.499,29.84 249.499,29.49 			"/>
			<polygon clip-path="url(#SVGID_00000147920445616413263080000015746293625705089210_)" fill="#8E6627" points="269.089,12.476 
				269.274,12.662 249.499,30.191 249.499,29.84 			"/>
			<polygon clip-path="url(#SVGID_00000147920445616413263080000015746293625705089210_)" fill="#906727" points="269.274,12.662 
				269.459,12.848 249.499,30.541 249.499,30.191 			"/>
			<polygon clip-path="url(#SVGID_00000147920445616413263080000015746293625705089210_)" fill="#926927" points="269.459,12.848 
				269.645,13.035 249.499,30.892 249.499,30.541 			"/>
			<polygon clip-path="url(#SVGID_00000147920445616413263080000015746293625705089210_)" fill="#956A27" points="269.645,13.035 
				269.83,13.221 249.499,31.242 249.499,30.892 			"/>
			<polygon clip-path="url(#SVGID_00000147920445616413263080000015746293625705089210_)" fill="#976B27" points="269.83,13.221 
				270.015,13.407 249.499,31.593 249.499,31.242 			"/>
			<polygon clip-path="url(#SVGID_00000147920445616413263080000015746293625705089210_)" fill="#996C27" points="270.015,13.407 
				270.201,13.593 249.499,31.943 249.499,31.593 			"/>
			<polygon clip-path="url(#SVGID_00000147920445616413263080000015746293625705089210_)" fill="#9B6E27" points="270.201,13.593 
				270.386,13.78 249.499,32.294 249.499,31.943 			"/>
			<polygon clip-path="url(#SVGID_00000147920445616413263080000015746293625705089210_)" fill="#9D6F27" points="270.386,13.78 
				270.571,13.966 249.499,32.645 249.499,32.294 			"/>
			<polygon clip-path="url(#SVGID_00000147920445616413263080000015746293625705089210_)" fill="#9F7127" points="270.571,13.966 
				270.757,14.152 249.499,32.995 249.499,32.645 			"/>
			<polygon clip-path="url(#SVGID_00000147920445616413263080000015746293625705089210_)" fill="#A07227" points="270.757,14.152 
				270.942,14.338 249.499,33.346 249.499,32.995 			"/>
			<polygon clip-path="url(#SVGID_00000147920445616413263080000015746293625705089210_)" fill="#A27327" points="270.942,14.338 
				271.127,14.525 249.499,33.696 249.499,33.346 			"/>
			<polygon clip-path="url(#SVGID_00000147920445616413263080000015746293625705089210_)" fill="#A57527" points="271.127,14.525 
				271.313,14.711 249.499,34.047 249.499,33.696 			"/>
			<polygon clip-path="url(#SVGID_00000147920445616413263080000015746293625705089210_)" fill="#A77627" points="271.313,14.711 
				271.498,14.897 249.499,34.397 249.499,34.047 			"/>
			<polygon clip-path="url(#SVGID_00000147920445616413263080000015746293625705089210_)" fill="#A97727" points="271.498,14.897 
				271.683,15.083 249.499,34.748 249.499,34.397 			"/>
			<polygon clip-path="url(#SVGID_00000147920445616413263080000015746293625705089210_)" fill="#AB7827" points="271.683,15.083 
				271.869,15.27 249.499,35.098 249.499,34.748 			"/>
			<polygon clip-path="url(#SVGID_00000147920445616413263080000015746293625705089210_)" fill="#AC7927" points="271.869,15.27 
				272.054,15.456 249.499,35.449 249.499,35.098 			"/>
			<polygon clip-path="url(#SVGID_00000147920445616413263080000015746293625705089210_)" fill="#AE7B27" points="272.054,15.456 
				272.239,15.642 249.499,35.799 249.499,35.449 			"/>
			<polygon clip-path="url(#SVGID_00000147920445616413263080000015746293625705089210_)" fill="#B07C26" points="272.239,15.642 
				272.425,15.828 249.499,36.15 249.499,35.799 			"/>
			<polygon clip-path="url(#SVGID_00000147920445616413263080000015746293625705089210_)" fill="#B27D27" points="272.425,15.828 
				272.61,16.015 249.499,36.5 249.499,36.15 			"/>
			<polygon clip-path="url(#SVGID_00000147920445616413263080000015746293625705089210_)" fill="#B37E27" points="272.61,16.015 
				272.795,16.201 249.499,36.851 249.499,36.5 			"/>
			<polygon clip-path="url(#SVGID_00000147920445616413263080000015746293625705089210_)" fill="#B68026" points="272.795,16.201 
				272.981,16.387 249.499,37.201 249.499,36.851 			"/>
			<polygon clip-path="url(#SVGID_00000147920445616413263080000015746293625705089210_)" fill="#B78026" points="272.981,16.387 
				273.166,16.573 249.499,37.552 249.499,37.201 			"/>
			<polygon clip-path="url(#SVGID_00000147920445616413263080000015746293625705089210_)" fill="#B98126" points="273.166,16.573 
				273.351,16.76 249.499,37.903 249.499,37.552 			"/>
			<polygon clip-path="url(#SVGID_00000147920445616413263080000015746293625705089210_)" fill="#BB8226" points="273.351,16.76 
				273.537,16.946 249.499,38.253 249.499,37.903 			"/>
			<polygon clip-path="url(#SVGID_00000147920445616413263080000015746293625705089210_)" fill="#BC8326" points="273.537,16.946 
				273.722,17.132 249.499,38.604 249.499,38.253 			"/>
			<polygon clip-path="url(#SVGID_00000147920445616413263080000015746293625705089210_)" fill="#BE8426" points="273.722,17.132 
				273.907,17.319 249.499,38.954 249.499,38.604 			"/>
			<polygon clip-path="url(#SVGID_00000147920445616413263080000015746293625705089210_)" fill="#C08626" points="273.907,17.319 
				274.093,17.505 249.499,39.305 249.499,38.954 			"/>
			<polygon clip-path="url(#SVGID_00000147920445616413263080000015746293625705089210_)" fill="#C28726" points="274.093,17.505 
				274.278,17.691 249.499,39.655 249.499,39.305 			"/>
			<polygon clip-path="url(#SVGID_00000147920445616413263080000015746293625705089210_)" fill="#C38825" points="274.278,17.691 
				274.463,17.877 249.499,40.006 249.499,39.655 			"/>
			<polygon clip-path="url(#SVGID_00000147920445616413263080000015746293625705089210_)" fill="#C48825" points="274.463,17.877 
				274.649,18.064 249.499,40.356 249.499,40.006 			"/>
			<polygon clip-path="url(#SVGID_00000147920445616413263080000015746293625705089210_)" fill="#C68A25" points="274.649,18.064 
				274.834,18.25 249.499,40.707 249.499,40.356 			"/>
			<polygon clip-path="url(#SVGID_00000147920445616413263080000015746293625705089210_)" fill="#C88B25" points="274.834,18.25 
				275.019,18.436 249.499,41.057 249.499,40.707 			"/>
			<polygon clip-path="url(#SVGID_00000147920445616413263080000015746293625705089210_)" fill="#C98C25" points="275.019,18.436 
				275.205,18.622 249.499,41.408 249.499,41.057 			"/>
			<polygon clip-path="url(#SVGID_00000147920445616413263080000015746293625705089210_)" fill="#CB8D24" points="275.205,18.622 
				275.39,18.809 249.499,41.758 249.499,41.408 			"/>
			<polygon clip-path="url(#SVGID_00000147920445616413263080000015746293625705089210_)" fill="#CC8E24" points="275.39,18.809 
				275.575,18.995 249.499,42.109 249.499,41.758 			"/>
			<polygon clip-path="url(#SVGID_00000147920445616413263080000015746293625705089210_)" fill="#CD8F24" points="275.575,18.995 
				275.761,19.181 249.499,42.46 249.499,42.109 			"/>
			<polygon clip-path="url(#SVGID_00000147920445616413263080000015746293625705089210_)" fill="#CF9024" points="275.761,19.181 
				275.946,19.367 249.499,42.81 249.499,42.46 			"/>
			<polygon clip-path="url(#SVGID_00000147920445616413263080000015746293625705089210_)" fill="#D19123" points="275.946,19.367 
				276.131,19.554 249.499,43.161 249.499,42.81 			"/>
			<polygon clip-path="url(#SVGID_00000147920445616413263080000015746293625705089210_)" fill="#D29223" points="276.131,19.554 
				276.317,19.74 249.499,43.511 249.499,43.161 			"/>
			<polygon clip-path="url(#SVGID_00000147920445616413263080000015746293625705089210_)" fill="#D39323" points="276.317,19.74 
				276.502,19.926 249.499,43.862 249.499,43.511 			"/>
			<polygon clip-path="url(#SVGID_00000147920445616413263080000015746293625705089210_)" fill="#D59423" points="276.502,19.926 
				276.687,20.112 249.499,44.212 249.499,43.862 			"/>
			<polygon clip-path="url(#SVGID_00000147920445616413263080000015746293625705089210_)" fill="#D69522" points="276.687,20.112 
				276.873,20.299 249.499,44.563 249.499,44.212 			"/>
			<polygon clip-path="url(#SVGID_00000147920445616413263080000015746293625705089210_)" fill="#D79522" points="276.873,20.299 
				277.058,20.485 249.499,44.913 249.499,44.563 			"/>
			<polygon clip-path="url(#SVGID_00000147920445616413263080000015746293625705089210_)" fill="#D99722" points="277.058,20.485 
				277.243,20.671 249.499,45.264 249.499,44.913 			"/>
			<polygon clip-path="url(#SVGID_00000147920445616413263080000015746293625705089210_)" fill="#D99722" points="277.243,20.671 
				277.429,20.857 249.499,45.614 249.499,45.264 			"/>
			<polygon clip-path="url(#SVGID_00000147920445616413263080000015746293625705089210_)" fill="#DB9822" points="277.429,20.857 
				277.614,21.044 249.499,45.965 249.499,45.614 			"/>
			<polygon clip-path="url(#SVGID_00000147920445616413263080000015746293625705089210_)" fill="#DC9921" points="277.614,21.044 
				277.799,21.23 249.499,46.315 249.499,45.965 			"/>
			<polygon clip-path="url(#SVGID_00000147920445616413263080000015746293625705089210_)" fill="#DD9A21" points="277.799,21.23 
				277.985,21.416 249.499,46.666 249.499,46.315 			"/>
			<polygon clip-path="url(#SVGID_00000147920445616413263080000015746293625705089210_)" fill="#DF9B21" points="277.985,21.416 
				278.17,21.602 249.499,47.017 249.499,46.666 			"/>
			<polygon clip-path="url(#SVGID_00000147920445616413263080000015746293625705089210_)" fill="#DF9B21" points="278.17,21.602 
				278.355,21.789 249.499,47.367 249.499,47.017 			"/>
			<polygon clip-path="url(#SVGID_00000147920445616413263080000015746293625705089210_)" fill="#E19C20" points="278.355,21.789 
				278.541,21.975 249.499,47.718 249.499,47.367 			"/>
			<polygon clip-path="url(#SVGID_00000147920445616413263080000015746293625705089210_)" fill="#E29D21" points="278.541,21.975 
				278.726,22.161 249.499,48.068 249.499,47.718 			"/>
			<polygon clip-path="url(#SVGID_00000147920445616413263080000015746293625705089210_)" fill="#E39E21" points="278.726,22.161 
				278.911,22.347 249.499,48.419 249.499,48.068 			"/>
			<polygon clip-path="url(#SVGID_00000147920445616413263080000015746293625705089210_)" fill="#E39E20" points="278.911,22.347 
				279.097,22.534 249.499,48.769 249.499,48.419 			"/>
			<polygon clip-path="url(#SVGID_00000147920445616413263080000015746293625705089210_)" fill="#E59F20" points="279.097,22.534 
				279.282,22.72 249.499,49.12 249.499,48.769 			"/>
			<polygon clip-path="url(#SVGID_00000147920445616413263080000015746293625705089210_)" fill="#E6A020" points="279.282,22.72 
				279.467,22.906 249.499,49.47 249.499,49.12 			"/>
			<polygon clip-path="url(#SVGID_00000147920445616413263080000015746293625705089210_)" fill="#E7A120" points="279.467,22.906 
				279.653,23.092 249.499,49.821 249.499,49.47 			"/>
			<polygon clip-path="url(#SVGID_00000147920445616413263080000015746293625705089210_)" fill="#E7A120" points="279.653,23.092 
				279.838,23.279 249.499,50.171 249.499,49.821 			"/>
			<polygon clip-path="url(#SVGID_00000147920445616413263080000015746293625705089210_)" fill="#E8A21F" points="279.838,23.279 
				280.023,23.465 249.499,50.522 249.499,50.171 			"/>
			<polygon clip-path="url(#SVGID_00000147920445616413263080000015746293625705089210_)" fill="#E9A21F" points="280.023,23.465 
				280.209,23.651 249.499,50.872 249.499,50.522 			"/>
			<polygon clip-path="url(#SVGID_00000147920445616413263080000015746293625705089210_)" fill="#EAA21F" points="280.209,23.651 
				280.394,23.838 249.499,51.223 249.499,50.872 			"/>
			<polygon clip-path="url(#SVGID_00000147920445616413263080000015746293625705089210_)" fill="#ECA41F" points="280.394,23.838 
				280.579,24.024 249.499,51.574 249.499,51.223 			"/>
			<polygon clip-path="url(#SVGID_00000147920445616413263080000015746293625705089210_)" fill="#ECA41F" points="280.579,24.024 
				280.765,24.21 249.499,51.924 249.499,51.574 			"/>
			<polygon clip-path="url(#SVGID_00000147920445616413263080000015746293625705089210_)" fill="#EDA41E" points="280.765,24.21 
				280.95,24.396 249.499,52.275 249.499,51.924 			"/>
			<polygon clip-path="url(#SVGID_00000147920445616413263080000015746293625705089210_)" fill="#EEA61E" points="280.95,24.396 
				281.135,24.583 249.499,52.625 249.499,52.275 			"/>
			<polygon clip-path="url(#SVGID_00000147920445616413263080000015746293625705089210_)" fill="#EFA61E" points="281.135,24.583 
				281.321,24.769 249.499,52.976 249.499,52.625 			"/>
			<polygon clip-path="url(#SVGID_00000147920445616413263080000015746293625705089210_)" fill="#EFA61E" points="281.321,24.769 
				281.506,24.955 249.499,53.326 249.499,52.976 			"/>
			<polygon clip-path="url(#SVGID_00000147920445616413263080000015746293625705089210_)" fill="#F1A81D" points="281.506,24.955 
				281.691,25.141 249.499,53.677 249.499,53.326 			"/>
			<polygon clip-path="url(#SVGID_00000147920445616413263080000015746293625705089210_)" fill="#F1A81D" points="281.691,25.141 
				281.877,25.328 249.499,54.027 249.499,53.677 			"/>
			<polygon clip-path="url(#SVGID_00000147920445616413263080000015746293625705089210_)" fill="#F2A81D" points="281.877,25.328 
				282.062,25.514 249.499,54.378 249.499,54.027 			"/>
			<polygon clip-path="url(#SVGID_00000147920445616413263080000015746293625705089210_)" fill="#F2A81D" points="282.062,25.514 
				282.247,25.7 249.499,54.728 249.499,54.378 			"/>
			<polygon clip-path="url(#SVGID_00000147920445616413263080000015746293625705089210_)" fill="#F4AA1D" points="282.247,25.7 
				282.433,25.886 249.499,55.079 249.499,54.728 			"/>
			<polygon clip-path="url(#SVGID_00000147920445616413263080000015746293625705089210_)" fill="#F5AA1C" points="282.433,25.886 
				282.618,26.073 249.499,55.429 249.499,55.079 			"/>
			<polygon clip-path="url(#SVGID_00000147920445616413263080000015746293625705089210_)" fill="#F5AA1C" points="282.618,26.073 
				282.803,26.259 249.499,55.78 249.499,55.429 			"/>
			<polygon clip-path="url(#SVGID_00000147920445616413263080000015746293625705089210_)" fill="#F5AA1C" points="282.803,26.259 
				282.989,26.445 249.499,56.13 249.499,55.78 			"/>
			<polygon clip-path="url(#SVGID_00000147920445616413263080000015746293625705089210_)" fill="#F6AA1B" points="282.989,26.445 
				283.174,26.631 249.499,56.481 249.499,56.13 			"/>
			<polygon clip-path="url(#SVGID_00000147920445616413263080000015746293625705089210_)" fill="#F6AA1B" points="283.174,26.631 
				283.359,26.818 249.499,56.832 249.499,56.481 			"/>
			<polygon clip-path="url(#SVGID_00000147920445616413263080000015746293625705089210_)" fill="#F8AC1B" points="283.359,26.818 
				283.545,27.004 249.499,57.182 249.499,56.832 			"/>
			<polygon clip-path="url(#SVGID_00000147920445616413263080000015746293625705089210_)" fill="#F8AC1B" points="283.545,27.004 
				283.73,27.19 249.499,57.533 249.499,57.182 			"/>
			<polygon clip-path="url(#SVGID_00000147920445616413263080000015746293625705089210_)" fill="#F9AC1B" points="283.73,27.19 
				283.915,27.376 249.499,57.883 249.499,57.533 			"/>
			<polygon clip-path="url(#SVGID_00000147920445616413263080000015746293625705089210_)" fill="#F9AC1B" points="283.915,27.376 
				284.101,27.563 249.499,58.234 249.499,57.883 			"/>
			<polygon clip-path="url(#SVGID_00000147920445616413263080000015746293625705089210_)" fill="#F9AC1B" points="284.101,27.563 
				284.286,27.749 249.499,58.584 249.499,58.234 			"/>
			<polygon clip-path="url(#SVGID_00000147920445616413263080000015746293625705089210_)" fill="#F9AC1B" points="284.286,27.749 
				284.471,27.935 249.499,58.935 249.499,58.584 			"/>
			<polygon clip-path="url(#SVGID_00000147920445616413263080000015746293625705089210_)" fill="#F9AC1B" points="284.471,27.935 
				284.657,28.121 249.499,59.285 249.499,58.935 			"/>
			<polygon clip-path="url(#SVGID_00000147920445616413263080000015746293625705089210_)" fill="#F9AC1B" points="284.657,28.121 
				284.842,28.308 249.499,59.636 249.499,59.285 			"/>
			<polygon clip-path="url(#SVGID_00000147920445616413263080000015746293625705089210_)" fill="#F9AC1B" points="284.842,28.308 
				285.027,28.494 249.499,59.986 249.499,59.636 			"/>
			<polygon clip-path="url(#SVGID_00000147920445616413263080000015746293625705089210_)" fill="#FAAD1A" points="285.027,28.494 
				285.212,28.68 249.499,60.337 249.499,59.986 			"/>
			<polygon clip-path="url(#SVGID_00000147920445616413263080000015746293625705089210_)" fill="#FAAD1A" points="285.212,28.68 
				285.398,28.866 249.499,60.687 249.499,60.337 			"/>
			<polygon clip-path="url(#SVGID_00000147920445616413263080000015746293625705089210_)" fill="#FAAD1A" points="285.398,28.866 
				285.583,29.053 249.499,61.038 249.499,60.687 			"/>
			<polygon clip-path="url(#SVGID_00000147920445616413263080000015746293625705089210_)" fill="#FAAD1A" points="285.583,29.053 
				285.768,29.239 249.499,61.389 249.499,61.038 			"/>
			<polygon clip-path="url(#SVGID_00000147920445616413263080000015746293625705089210_)" fill="#FAAD1A" points="285.768,29.239 
				285.954,29.425 249.499,61.739 249.499,61.389 			"/>
			<polygon clip-path="url(#SVGID_00000147920445616413263080000015746293625705089210_)" fill="#FAAD1A" points="285.954,29.425 
				297.356,40.885 297.356,101.242 281.23,101.242 249.499,69.353 249.499,61.739 			"/>
		</g>
	</g>
	<g display="none">
		<path display="inline" fill="#FAAD1A" d="M220.559,97.368l1.39,0.513c3.956,1.46,8.346-0.564,9.805-4.52l29.934-81.124v0
			c-8.763-3.233-18.488,1.249-21.721,10.012l-24.024,65.106C214.453,91.394,216.52,95.877,220.559,97.368z"/>
	</g>
	<g>
		<path fill="#58595B" d="M184.111,13.202L184.111,13.202c4.233,2.054,5.999,7.151,3.945,11.384l-33.789,69.622
			c-2.054,4.233-7.529,4.659-11.762,2.604l0.378,1.34c-4.233-2.054-5.999-7.151-3.945-11.384l33.789-69.622
			C174.782,12.914,179.878,11.148,184.111,13.202z"/>
	</g>
	<g>
		<path fill="#FAAD1A" d="M213.534,27.084h-58.119c-4.288,0-7.764-3.476-7.764-7.764v0c0-4.288,3.476-7.764,7.764-7.764h58.119
			c4.288,0,7.764,3.476,7.764,7.764v0C221.298,23.608,217.822,27.084,213.534,27.084z"/>
	</g>
	<g>
		<path fill="#FAAD1A" d="M184.474,12.582L184.474,12.582c-4.705,0-8.519,3.814-8.519,8.519v69.846c0,4.705,3.814,8.519,8.519,8.519
			h0c4.705,0,8.519-3.814,8.519-8.519V21.102C192.993,16.397,189.179,12.582,184.474,12.582z"/>
	</g>
	<g>
		<path fill="#404041" d="M183.741,13.303L183.741,13.303c-4.183,2.153-5.829,7.29-3.676,11.474l36.161,70.248
			c2.153,4.183,7.29,5.829,11.474,3.675l0,0c4.183-2.153,5.829-7.29,3.676-11.474l-36.161-70.248
			C193.061,12.795,187.924,11.149,183.741,13.303z"/>
	</g>
	<g>
		<path fill="#404041" d="M184.474,0.16c-9.837,0-17.811,7.974-17.811,17.811c0,9.837,7.974,17.811,17.811,17.811
			c9.837,0,17.811-7.974,17.811-17.811C202.286,8.134,194.311,0.16,184.474,0.16z M184.474,26.512c-4.717,0-8.54-3.824-8.54-8.54
			s3.824-8.54,8.54-8.54c4.717,0,8.54,3.824,8.54,8.54S189.191,26.512,184.474,26.512z"/>
		<circle fill="#404041" cx="184.474" cy="17.971" r="8.54"/>
		<circle fill="#FFFFFF" cx="184.474" cy="17.971" r="7.3"/>
	</g>
	<g>
		<path fill="#FAAD1A" d="M75.11,35.005C70.018,20.47,58.268,12.065,42.837,11.766c-9.526-0.185-19.058-0.201-28.587-0.151
			C5.467,11.662,2.574,14.611,2.544,23.338C2.506,34.03,2.535,44.723,2.535,55.416c0.016,0,0.033,0,0.049,0
			c0,11.173-0.128,22.348,0.044,33.518c0.122,7.896,3.235,10.757,11.164,10.785c9.288,0.032,18.579,0.121,27.865-0.058
			c16.334-0.314,28.738-8.826,33.583-23.667C79.669,62.427,79.876,48.607,75.11,35.005z M58.073,69.029
			c-2.931,10.66-9.473,15.731-20.61,16.119c-4.575,0.159-9.164-0.042-13.739,0.123c-2.239,0.081-2.91-0.699-2.888-2.875
			c0.093-8.883,0.039-17.768,0.038-26.652c0-8.884,0.075-17.769-0.05-26.651c-0.033-2.37,0.669-3.147,3.061-3.002
			c5.522,0.334,11.049-0.094,16.597,0.519c10.372,1.146,16.034,7.177,18.179,17.118C60.478,52.143,60.37,60.674,58.073,69.029z"/>
	</g>
	<g>
		<path fill="#8C6527" d="M265.453,15.083c-1.138-0.871-2.378-1.59-3.691-2.147l-2.949,7.991L265.453,15.083z"/>
		<path fill="#8C6527" d="M258.624,21.44l7.036-6.193c-0.069-0.055-0.137-0.111-0.207-0.164l-6.64,5.844L258.624,21.44z"/>
		<path fill="#8E6627" d="M258.435,21.953l7.432-6.541c-0.068-0.056-0.138-0.11-0.207-0.164l-7.036,6.193L258.435,21.953z"/>
		<path fill="#906727" d="M258.246,22.465l7.828-6.89c-0.067-0.057-0.139-0.109-0.207-0.164l-7.432,6.541L258.246,22.465z"/>
		<path fill="#926927" d="M258.056,22.978l8.224-7.238c-0.067-0.058-0.139-0.107-0.207-0.164l-7.828,6.89L258.056,22.978z"/>
		<path fill="#956A27" d="M257.867,23.491l8.606-7.574c-0.065-0.058-0.127-0.12-0.193-0.177l-8.224,7.238L257.867,23.491z"/>
		<path fill="#976B27" d="M257.678,24.004l8.982-7.906c-0.064-0.059-0.123-0.123-0.188-0.181l-8.606,7.574L257.678,24.004z"/>
		<path fill="#996C27" d="M257.489,24.517l9.359-8.237c-0.063-0.06-0.124-0.122-0.188-0.181l-8.982,7.906L257.489,24.517z"/>
		<path fill="#9B6E27" d="M257.3,25.029l9.736-8.569c-0.062-0.061-0.125-0.121-0.188-0.181l-9.359,8.237L257.3,25.029z"/>
		<path fill="#9D6F27" d="M257.11,25.542l10.113-8.9c-0.061-0.062-0.125-0.12-0.188-0.181l-9.736,8.569L257.11,25.542z"/>
		<path fill="#9F7127" d="M256.921,26.055l10.489-9.232c-0.06-0.063-0.126-0.119-0.188-0.181l-10.113,8.9L256.921,26.055z"/>
		<path fill="#A07227" d="M256.732,26.568l10.857-9.556c-0.059-0.064-0.119-0.126-0.179-0.189l-10.489,9.232L256.732,26.568z"/>
		<path fill="#A27327" d="M256.543,27.081l11.215-9.871c-0.058-0.064-0.11-0.135-0.168-0.198l-10.857,9.556L256.543,27.081z"/>
		<path fill="#A57527" d="M256.354,27.593l11.573-10.185c-0.057-0.065-0.111-0.134-0.168-0.198l-11.215,9.871L256.354,27.593z"/>
		<path fill="#A77627" d="M256.164,28.106l11.93-10.5c-0.056-0.066-0.112-0.133-0.168-0.198l-11.573,10.185L256.164,28.106z"/>
		<path fill="#A97727" d="M255.975,28.619l12.288-10.815c-0.055-0.067-0.112-0.132-0.168-0.198l-11.93,10.5L255.975,28.619z"/>
		<path fill="#AB7827" d="M255.786,29.132l12.645-11.129c-0.054-0.068-0.113-0.131-0.168-0.198l-12.288,10.815L255.786,29.132z"/>
		<path fill="#AC7927" d="M255.597,29.643L255.597,29.643l13.001-11.441c-0.053-0.069-0.113-0.131-0.167-0.2l-12.645,11.129
			L255.597,29.643z"/>
		<path fill="#AE7B27" d="M255.694,29.905l13.053-11.488c-0.052-0.07-0.096-0.146-0.149-0.215l-13,11.442L255.694,29.905z"/>
		<path fill="#B07C26" d="M255.79,30.166l13.105-11.534c-0.051-0.071-0.097-0.145-0.149-0.215l-13.053,11.488L255.79,30.166z"/>
		<path fill="#B27D27" d="M255.887,30.428l13.158-11.58c-0.05-0.072-0.098-0.145-0.149-0.215L255.79,30.166L255.887,30.428z"/>
		<path fill="#B37E27" d="M255.983,30.689l13.21-11.627c-0.049-0.073-0.099-0.144-0.149-0.215l-13.158,11.58L255.983,30.689z"/>
		<path fill="#B68026" d="M256.08,30.951l13.263-11.673c-0.048-0.073-0.1-0.143-0.149-0.215l-13.21,11.627L256.08,30.951z"/>
		<path fill="#B78026" d="M256.176,31.212l13.315-11.719c-0.047-0.074-0.101-0.142-0.149-0.215L256.08,30.951L256.176,31.212z"/>
		<path fill="#B98126" d="M256.273,31.473l13.354-11.753c-0.046-0.075-0.088-0.153-0.135-0.227l-13.315,11.719L256.273,31.473z"/>
		<path fill="#BB8226" d="M256.369,31.735l13.386-11.781c-0.045-0.076-0.083-0.158-0.129-0.233l-13.354,11.753L256.369,31.735z"/>
		<path fill="#BC8326" d="M256.466,31.996l13.418-11.81c-0.044-0.077-0.084-0.157-0.129-0.233l-13.386,11.781L256.466,31.996z"/>
		<path fill="#BE8426" d="M256.562,32.257l13.45-11.838c-0.042-0.078-0.085-0.156-0.129-0.233l-13.418,11.81L256.562,32.257z"/>
		<path fill="#C08626" d="M256.658,32.519l13.483-11.867c-0.041-0.079-0.086-0.155-0.129-0.233l-13.45,11.838L256.658,32.519z"/>
		<path fill="#C28726" d="M256.755,32.78l13.515-11.895c-0.04-0.08-0.088-0.154-0.129-0.233l-13.483,11.867L256.755,32.78z"/>
		<path fill="#C38825" d="M256.851,33.042l13.541-11.918c-0.039-0.081-0.082-0.159-0.122-0.239L256.755,32.78L256.851,33.042z"/>
		<path fill="#C48825" d="M256.948,33.303L270.5,21.375c-0.038-0.082-0.068-0.17-0.108-0.252l-13.541,11.918L256.948,33.303z"/>
		<path fill="#C68A25" d="M257.044,33.564l13.563-11.937c-0.037-0.083-0.069-0.169-0.108-0.252l-13.552,11.927L257.044,33.564z"/>
		<path fill="#C88B25" d="M257.141,33.826l13.574-11.947c-0.036-0.084-0.071-0.168-0.108-0.252l-13.563,11.937L257.141,33.826z"/>
		<path fill="#C98C25" d="M257.237,34.087l13.585-11.957c-0.034-0.085-0.072-0.168-0.108-0.252l-13.574,11.947L257.237,34.087z"/>
		<path fill="#CB8D24" d="M257.334,34.348l13.596-11.967c-0.033-0.086-0.073-0.167-0.108-0.252l-13.585,11.957L257.334,34.348z"/>
		<path fill="#CC8E24" d="M257.43,34.61l13.608-11.976c-0.032-0.087-0.074-0.166-0.108-0.252l-13.596,11.967L257.43,34.61z"/>
		<polygon fill="#CD8F24" points="257.526,34.871 271.134,22.895 271.04,22.639 271.038,22.633 257.43,34.61 		"/>
		<polygon fill="#CF9024" points="257.623,35.132 271.231,23.156 271.134,22.895 257.526,34.871 		"/>
		<polygon fill="#D19123" points="257.719,35.394 271.327,23.417 271.231,23.156 257.623,35.132 		"/>
		<polygon fill="#D29223" points="257.816,35.655 271.424,23.679 271.327,23.417 257.719,35.394 		"/>
		<polygon fill="#D39323" points="257.912,35.917 271.52,23.94 271.424,23.679 257.816,35.655 		"/>
		<polygon fill="#D59423" points="258.009,36.178 271.616,24.201 271.52,23.94 257.912,35.917 		"/>
		<polygon fill="#D69522" points="258.105,36.439 271.713,24.463 271.616,24.201 258.009,36.178 		"/>
		<polygon fill="#D79522" points="258.202,36.701 271.809,24.724 271.713,24.463 258.105,36.439 		"/>
		<polygon fill="#D99722" points="258.298,36.962 271.906,24.986 271.809,24.724 258.202,36.701 		"/>
		<polygon fill="#D99722" points="258.394,37.223 272.002,25.247 271.906,24.986 258.298,36.962 		"/>
		<polygon fill="#DB9822" points="258.491,37.485 272.099,25.508 272.002,25.247 258.394,37.223 		"/>
		<polygon fill="#DC9921" points="258.587,37.746 272.195,25.77 272.099,25.508 258.491,37.485 		"/>
		<polygon fill="#DD9A21" points="258.684,38.008 272.292,26.031 272.195,25.77 258.587,37.746 		"/>
		<polygon fill="#DF9B21" points="258.78,38.269 272.388,26.292 272.292,26.031 258.684,38.008 		"/>
		<polygon fill="#DF9B21" points="258.877,38.53 272.484,26.554 272.388,26.292 258.78,38.269 		"/>
		<polygon fill="#E19C20" points="258.973,38.792 272.581,26.815 272.484,26.554 258.877,38.53 		"/>
		<polygon fill="#E29D21" points="259.07,39.053 272.677,27.077 272.581,26.815 258.973,38.792 		"/>
		<polygon fill="#E39E21" points="259.166,39.314 272.774,27.338 272.677,27.077 259.07,39.053 		"/>
		<polygon fill="#E39E20" points="259.262,39.576 272.87,27.599 272.774,27.338 259.166,39.314 		"/>
		<polygon fill="#E59F20" points="259.359,39.837 272.967,27.861 272.87,27.599 259.262,39.576 		"/>
		<polygon fill="#E6A020" points="259.455,40.099 273.063,28.122 272.967,27.861 259.359,39.837 		"/>
		<polygon fill="#E7A120" points="259.552,40.36 273.16,28.383 273.063,28.122 259.455,40.099 		"/>
		<polygon fill="#E7A120" points="259.648,40.621 273.256,28.645 273.16,28.383 259.552,40.36 		"/>
		<polygon fill="#E8A21F" points="259.745,40.883 273.352,28.906 273.256,28.645 259.648,40.621 		"/>
		<polygon fill="#E9A21F" points="259.841,41.144 273.449,29.168 273.352,28.906 259.745,40.883 		"/>
		<polygon fill="#EAA21F" points="259.938,41.405 273.545,29.429 273.449,29.168 259.841,41.144 		"/>
		<polygon fill="#ECA41F" points="260.034,41.667 273.642,29.69 273.545,29.429 259.938,41.405 		"/>
		<polygon fill="#ECA41F" points="260.13,41.928 273.738,29.952 273.642,29.69 260.034,41.667 		"/>
		<polygon fill="#EDA41E" points="260.227,42.19 273.835,30.213 273.738,29.952 260.13,41.928 		"/>
		<polygon fill="#EEA61E" points="260.323,42.451 273.931,30.474 273.835,30.213 260.227,42.19 		"/>
		<polygon fill="#EFA61E" points="260.42,42.712 274.028,30.736 273.931,30.474 260.323,42.451 		"/>
		<polygon fill="#EFA61E" points="260.516,42.974 274.124,30.997 274.028,30.736 260.42,42.712 		"/>
		<polygon fill="#F1A81D" points="260.613,43.235 274.22,31.258 274.124,30.997 260.516,42.974 		"/>
		<polygon fill="#F1A81D" points="260.709,43.496 274.317,31.52 274.22,31.258 260.613,43.235 		"/>
		<polygon fill="#F2A81D" points="260.806,43.758 274.413,31.781 274.317,31.52 260.709,43.496 		"/>
		<polygon fill="#F2A81D" points="260.902,44.019 274.51,32.043 274.413,31.781 260.806,43.758 		"/>
		<polygon fill="#F4AA1D" points="260.998,44.28 274.606,32.304 274.51,32.043 260.902,44.019 		"/>
		<polygon fill="#F5AA1C" points="261.095,44.542 274.703,32.565 274.606,32.304 260.998,44.28 		"/>
		<polygon fill="#F5AA1C" points="261.191,44.803 274.799,32.827 274.703,32.565 261.095,44.542 		"/>
		<polygon fill="#F5AA1C" points="261.288,45.065 274.896,33.088 274.799,32.827 261.191,44.803 		"/>
		<polygon fill="#F6AA1B" points="261.384,45.326 274.992,33.349 274.896,33.088 261.288,45.065 		"/>
		<polygon fill="#F6AA1B" points="261.481,45.587 275.088,33.611 274.992,33.349 261.384,45.326 		"/>
		<polygon fill="#F8AC1B" points="261.577,45.849 275.185,33.872 275.088,33.611 261.481,45.587 		"/>
		<polygon fill="#F8AC1B" points="261.674,46.11 275.281,34.134 275.185,33.872 261.577,45.849 		"/>
		<polygon fill="#F9AC1B" points="261.77,46.371 275.378,34.395 275.281,34.134 261.674,46.11 		"/>
		<polygon fill="#F9AC1B" points="261.866,46.633 275.474,34.656 275.378,34.395 261.77,46.371 		"/>
		<polygon fill="#F9AC1B" points="261.963,46.894 275.571,34.918 275.474,34.656 261.866,46.633 		"/>
		<polygon fill="#F9AC1B" points="262.059,47.156 275.667,35.179 275.571,34.918 261.963,46.894 		"/>
		<polygon fill="#F9AC1B" points="262.156,47.417 275.764,35.44 275.667,35.179 262.059,47.156 		"/>
		<polygon fill="#F9AC1B" points="262.252,47.678 275.86,35.702 275.764,35.44 262.156,47.417 		"/>
		<polygon fill="#F9AC1B" points="262.349,47.94 275.956,35.963 275.86,35.702 262.252,47.678 		"/>
		<polygon fill="#FAAD1A" points="262.445,48.201 276.053,36.225 275.956,35.963 262.349,47.94 		"/>
		<polygon fill="#FAAD1A" points="262.542,48.462 276.149,36.486 276.053,36.225 262.445,48.201 		"/>
		<polygon fill="#FAAD1A" points="262.638,48.724 276.246,36.747 276.149,36.486 262.542,48.462 		"/>
		<polygon fill="#FAAD1A" points="262.734,48.985 276.342,37.009 276.246,36.747 262.638,48.724 		"/>
		<polygon fill="#FAAD1A" points="262.831,49.247 276.439,37.27 276.342,37.009 262.734,48.985 		"/>
		<path fill="#FAAD1A" d="M279.43,94.23c1.46,3.956,5.85,5.979,9.805,4.52l1.39-0.513c4.039-1.49,6.106-5.973,4.615-10.013
			L276.439,37.27l-13.608,11.977L279.43,94.23z"/>
		<path fill="#FAAD1A" d="M255.597,29.643l-0.096-0.261l-0.096-0.261l-0.096-0.261l-0.096-0.261l-0.096-0.261l-0.096-0.261
			l-0.096-0.261l-0.096-0.261l-0.096-0.261l-0.096-0.261l-0.096-0.261l-0.096-0.261l-0.096-0.261l-0.096-0.261l-0.096-0.261
			l-0.096-0.261l-0.096-0.261l-4.632-12.553c-4.037,1.787-7.379,5.133-9.028,9.602L215.752,88.77
			c-1.49,4.039,0.576,8.522,4.615,10.013l1.39,0.513c3.956,1.46,8.346-0.564,9.805-4.52L255.597,29.643z"/>
		<path fill="#FAAD1A" d="M258.813,20.927l2.949-7.991c-3.747-1.588-8.063-1.839-12.191-0.388c-0.081,0.034-0.165,0.063-0.245,0.099
			l4.632,12.553L258.813,20.927z"/>
		<polygon fill="#FAAD1A" points="258.813,20.927 253.958,25.2 254.054,25.462 258.624,21.44 		"/>
		<polygon fill="#FAAD1A" points="258.624,21.44 254.054,25.462 254.151,25.723 258.435,21.953 		"/>
		<polygon fill="#FAAD1A" points="258.435,21.953 254.151,25.723 254.247,25.985 258.246,22.465 		"/>
		<polygon fill="#FAAD1A" points="258.246,22.465 254.247,25.985 254.344,26.246 258.056,22.978 		"/>
		<polygon fill="#FAAD1A" points="258.056,22.978 254.344,26.246 254.44,26.507 257.867,23.491 		"/>
		<polygon fill="#FAAD1A" points="257.867,23.491 254.44,26.507 254.537,26.769 257.678,24.004 		"/>
		<polygon fill="#FAAD1A" points="257.678,24.004 254.537,26.769 254.633,27.03 257.489,24.517 		"/>
		<polygon fill="#FAAD1A" points="257.489,24.517 254.633,27.03 254.73,27.291 257.3,25.029 		"/>
		<polygon fill="#FAAD1A" points="257.3,25.029 254.73,27.291 254.826,27.553 257.11,25.542 		"/>
		<polygon fill="#FAAD1A" points="257.11,25.542 254.826,27.553 254.922,27.814 256.921,26.055 		"/>
		<polygon fill="#FAAD1A" points="256.921,26.055 254.922,27.814 255.019,28.075 256.732,26.568 		"/>
		<polygon fill="#FAAD1A" points="256.732,26.568 255.019,28.075 255.115,28.337 256.543,27.081 		"/>
		<polygon fill="#FAAD1A" points="256.543,27.081 255.115,28.337 255.212,28.598 256.354,27.593 		"/>
		<polygon fill="#FAAD1A" points="256.354,27.593 255.212,28.598 255.308,28.86 256.164,28.106 		"/>
		<polygon fill="#FAAD1A" points="256.164,28.106 255.308,28.86 255.405,29.121 255.975,28.619 		"/>
		<polygon fill="#FAAD1A" points="255.975,28.619 255.405,29.121 255.501,29.382 255.786,29.132 		"/>
		<polygon fill="#FAAD1A" points="255.501,29.382 255.597,29.643 255.786,29.132 		"/>
	</g>
	<g>
		<path fill="#8C6527" d="M124.957,15.083c-1.138-0.871-2.378-1.59-3.691-2.147l-2.949,7.991L124.957,15.083z"/>
		<path fill="#8C6527" d="M118.128,21.44l7.036-6.193c-0.069-0.055-0.137-0.111-0.207-0.164l-6.64,5.844L118.128,21.44z"/>
		<path fill="#8E6627" d="M117.938,21.953l7.432-6.541c-0.068-0.056-0.138-0.11-0.207-0.164l-7.036,6.193L117.938,21.953z"/>
		<path fill="#906727" d="M117.749,22.465l7.828-6.89c-0.067-0.057-0.139-0.109-0.207-0.164l-7.432,6.541L117.749,22.465z"/>
		<path fill="#926927" d="M117.56,22.978l8.224-7.238c-0.067-0.058-0.139-0.107-0.207-0.164l-7.828,6.89L117.56,22.978z"/>
		<path fill="#956A27" d="M117.371,23.491l8.606-7.574c-0.065-0.058-0.127-0.12-0.193-0.177l-8.224,7.238L117.371,23.491z"/>
		<path fill="#976B27" d="M117.182,24.004l8.982-7.906c-0.064-0.059-0.123-0.123-0.188-0.181l-8.606,7.574L117.182,24.004z"/>
		<path fill="#996C27" d="M116.992,24.517l9.359-8.237c-0.063-0.06-0.124-0.122-0.188-0.181l-8.982,7.906L116.992,24.517z"/>
		<path fill="#9B6E27" d="M116.803,25.029l9.736-8.569c-0.062-0.061-0.125-0.121-0.188-0.181l-9.359,8.237L116.803,25.029z"/>
		<path fill="#9D6F27" d="M116.614,25.542l10.113-8.9c-0.061-0.062-0.125-0.12-0.188-0.181l-9.736,8.569L116.614,25.542z"/>
		<path fill="#9F7127" d="M116.425,26.055l10.489-9.232c-0.06-0.063-0.126-0.119-0.188-0.181l-10.113,8.9L116.425,26.055z"/>
		<path fill="#A07227" d="M116.235,26.568l10.857-9.556c-0.059-0.064-0.119-0.126-0.179-0.189l-10.489,9.232L116.235,26.568z"/>
		<path fill="#A27327" d="M116.046,27.081l11.215-9.871c-0.058-0.064-0.11-0.135-0.168-0.198l-10.857,9.556L116.046,27.081z"/>
		<path fill="#A57527" d="M115.857,27.593l11.573-10.185c-0.057-0.065-0.111-0.134-0.168-0.198l-11.215,9.871L115.857,27.593z"/>
		<path fill="#A77627" d="M115.668,28.106l11.93-10.5c-0.056-0.066-0.112-0.133-0.168-0.198l-11.573,10.185L115.668,28.106z"/>
		<path fill="#A97727" d="M115.479,28.619l12.288-10.815c-0.055-0.067-0.112-0.132-0.168-0.198l-11.93,10.5L115.479,28.619z"/>
		<path fill="#AB7827" d="M115.289,29.132l12.645-11.129c-0.054-0.068-0.113-0.131-0.168-0.198l-12.288,10.815L115.289,29.132z"/>
		<path fill="#AC7927" d="M115.101,29.643L115.101,29.643l13.001-11.441c-0.053-0.069-0.113-0.131-0.167-0.2l-12.645,11.129
			L115.101,29.643z"/>
		<path fill="#AE7B27" d="M115.197,29.905l13.053-11.488c-0.052-0.07-0.096-0.146-0.149-0.215l-13,11.442L115.197,29.905z"/>
		<path fill="#B07C26" d="M115.294,30.166l13.105-11.534c-0.051-0.071-0.097-0.145-0.149-0.215l-13.053,11.488L115.294,30.166z"/>
		<path fill="#B27D27" d="M115.39,30.428l13.158-11.58c-0.05-0.072-0.098-0.145-0.149-0.215l-13.105,11.534L115.39,30.428z"/>
		<path fill="#B37E27" d="M115.487,30.689l13.21-11.627c-0.049-0.073-0.099-0.144-0.149-0.215l-13.158,11.58L115.487,30.689z"/>
		<path fill="#B68026" d="M115.583,30.951l13.263-11.673c-0.048-0.073-0.1-0.143-0.149-0.215l-13.21,11.627L115.583,30.951z"/>
		<path fill="#B78026" d="M115.68,31.212l13.315-11.719c-0.047-0.074-0.101-0.142-0.149-0.215l-13.263,11.673L115.68,31.212z"/>
		<path fill="#B98126" d="M115.776,31.473L129.13,19.72c-0.046-0.075-0.088-0.153-0.135-0.227L115.68,31.212L115.776,31.473z"/>
		<path fill="#BB8226" d="M115.873,31.735l13.386-11.781c-0.045-0.076-0.083-0.158-0.129-0.233l-13.354,11.753L115.873,31.735z"/>
		<path fill="#BC8326" d="M115.969,31.996l13.418-11.81c-0.044-0.077-0.084-0.157-0.129-0.233l-13.386,11.781L115.969,31.996z"/>
		<path fill="#BE8426" d="M116.065,32.257l13.45-11.838c-0.042-0.078-0.085-0.156-0.129-0.233l-13.418,11.81L116.065,32.257z"/>
		<path fill="#C08626" d="M116.162,32.519l13.483-11.867c-0.041-0.079-0.086-0.155-0.129-0.233l-13.45,11.838L116.162,32.519z"/>
		<path fill="#C28726" d="M116.258,32.78l13.515-11.895c-0.04-0.08-0.088-0.154-0.129-0.233l-13.483,11.867L116.258,32.78z"/>
		<path fill="#C38825" d="M116.355,33.042l13.541-11.918c-0.039-0.081-0.082-0.159-0.122-0.239L116.258,32.78L116.355,33.042z"/>
		<path fill="#C48825" d="M116.451,33.303l13.552-11.927c-0.038-0.082-0.068-0.17-0.108-0.252l-13.541,11.918L116.451,33.303z"/>
		<path fill="#C68A25" d="M116.548,33.564l13.563-11.937c-0.037-0.083-0.069-0.169-0.108-0.252l-13.552,11.927L116.548,33.564z"/>
		<path fill="#C88B25" d="M116.644,33.826l13.574-11.947c-0.036-0.084-0.071-0.168-0.108-0.252l-13.563,11.937L116.644,33.826z"/>
		<path fill="#C98C25" d="M116.741,34.087l13.585-11.957c-0.034-0.085-0.072-0.168-0.108-0.252l-13.574,11.947L116.741,34.087z"/>
		<path fill="#CB8D24" d="M116.837,34.348l13.596-11.967c-0.033-0.086-0.073-0.167-0.108-0.252l-13.585,11.957L116.837,34.348z"/>
		<path fill="#CC8E24" d="M116.933,34.61l13.608-11.976c-0.032-0.087-0.074-0.166-0.108-0.252l-13.596,11.967L116.933,34.61z"/>
		<polygon fill="#CD8F24" points="117.03,34.871 130.638,22.895 130.543,22.639 130.541,22.633 116.933,34.61 		"/>
		<polygon fill="#CF9024" points="117.126,35.132 130.734,23.156 130.638,22.895 117.03,34.871 		"/>
		<polygon fill="#D19123" points="117.223,35.394 130.831,23.417 130.734,23.156 117.126,35.132 		"/>
		<polygon fill="#D29223" points="117.319,35.655 130.927,23.679 130.831,23.417 117.223,35.394 		"/>
		<polygon fill="#D39323" points="117.416,35.917 131.023,23.94 130.927,23.679 117.319,35.655 		"/>
		<polygon fill="#D59423" points="117.512,36.178 131.12,24.201 131.023,23.94 117.416,35.917 		"/>
		<polygon fill="#D69522" points="117.609,36.439 131.216,24.463 131.12,24.201 117.512,36.178 		"/>
		<polygon fill="#D79522" points="117.705,36.701 131.313,24.724 131.216,24.463 117.609,36.439 		"/>
		<polygon fill="#D99722" points="117.801,36.962 131.409,24.986 131.313,24.724 117.705,36.701 		"/>
		<polygon fill="#D99722" points="117.898,37.223 131.506,25.247 131.409,24.986 117.801,36.962 		"/>
		<polygon fill="#DB9822" points="117.994,37.485 131.602,25.508 131.506,25.247 117.898,37.223 		"/>
		<polygon fill="#DC9921" points="118.091,37.746 131.699,25.77 131.602,25.508 117.994,37.485 		"/>
		<polygon fill="#DD9A21" points="118.187,38.008 131.795,26.031 131.699,25.77 118.091,37.746 		"/>
		<polygon fill="#DF9B21" points="118.284,38.269 131.891,26.292 131.795,26.031 118.187,38.008 		"/>
		<polygon fill="#DF9B21" points="118.38,38.53 131.988,26.554 131.891,26.292 118.284,38.269 		"/>
		<polygon fill="#E19C20" points="118.477,38.792 132.084,26.815 131.988,26.554 118.38,38.53 		"/>
		<polygon fill="#E29D21" points="118.573,39.053 132.181,27.077 132.084,26.815 118.477,38.792 		"/>
		<polygon fill="#E39E21" points="118.669,39.314 132.277,27.338 132.181,27.077 118.573,39.053 		"/>
		<polygon fill="#E39E20" points="118.766,39.576 132.374,27.599 132.277,27.338 118.669,39.314 		"/>
		<polygon fill="#E59F20" points="118.862,39.837 132.47,27.861 132.374,27.599 118.766,39.576 		"/>
		<polygon fill="#E6A020" points="118.959,40.099 132.567,28.122 132.47,27.861 118.862,39.837 		"/>
		<polygon fill="#E7A120" points="119.055,40.36 132.663,28.383 132.567,28.122 118.959,40.099 		"/>
		<polygon fill="#E7A120" points="119.152,40.621 132.759,28.645 132.663,28.383 119.055,40.36 		"/>
		<polygon fill="#E8A21F" points="119.248,40.883 132.856,28.906 132.759,28.645 119.152,40.621 		"/>
		<polygon fill="#E9A21F" points="119.345,41.144 132.952,29.168 132.856,28.906 119.248,40.883 		"/>
		<polygon fill="#EAA21F" points="119.441,41.405 133.049,29.429 132.952,29.168 119.345,41.144 		"/>
		<polygon fill="#ECA41F" points="119.537,41.667 133.145,29.69 133.049,29.429 119.441,41.405 		"/>
		<polygon fill="#ECA41F" points="119.634,41.928 133.242,29.952 133.145,29.69 119.537,41.667 		"/>
		<polygon fill="#EDA41E" points="119.73,42.19 133.338,30.213 133.242,29.952 119.634,41.928 		"/>
		<polygon fill="#EEA61E" points="119.827,42.451 133.435,30.474 133.338,30.213 119.73,42.19 		"/>
		<polygon fill="#EFA61E" points="119.923,42.712 133.531,30.736 133.435,30.474 119.827,42.451 		"/>
		<polygon fill="#EFA61E" points="120.02,42.974 133.627,30.997 133.531,30.736 119.923,42.712 		"/>
		<polygon fill="#F1A81D" points="120.116,43.235 133.724,31.258 133.627,30.997 120.02,42.974 		"/>
		<polygon fill="#F1A81D" points="120.213,43.496 133.82,31.52 133.724,31.258 120.116,43.235 		"/>
		<polygon fill="#F2A81D" points="120.309,43.758 133.917,31.781 133.82,31.52 120.213,43.496 		"/>
		<polygon fill="#F2A81D" points="120.406,44.019 134.013,32.043 133.917,31.781 120.309,43.758 		"/>
		<polygon fill="#F4AA1D" points="120.502,44.28 134.11,32.304 134.013,32.043 120.406,44.019 		"/>
		<polygon fill="#F5AA1C" points="120.598,44.542 134.206,32.565 134.11,32.304 120.502,44.28 		"/>
		<polygon fill="#F5AA1C" points="120.695,44.803 134.303,32.827 134.206,32.565 120.598,44.542 		"/>
		<polygon fill="#F5AA1C" points="120.791,45.065 134.399,33.088 134.303,32.827 120.695,44.803 		"/>
		<polygon fill="#F6AA1B" points="120.888,45.326 134.495,33.349 134.399,33.088 120.791,45.065 		"/>
		<polygon fill="#F6AA1B" points="120.984,45.587 134.592,33.611 134.495,33.349 120.888,45.326 		"/>
		<polygon fill="#F8AC1B" points="121.081,45.849 134.688,33.872 134.592,33.611 120.984,45.587 		"/>
		<polygon fill="#F8AC1B" points="121.177,46.11 134.785,34.134 134.688,33.872 121.081,45.849 		"/>
		<polygon fill="#F9AC1B" points="121.273,46.371 134.881,34.395 134.785,34.134 121.177,46.11 		"/>
		<polygon fill="#F9AC1B" points="121.37,46.633 134.978,34.656 134.881,34.395 121.273,46.371 		"/>
		<polygon fill="#F9AC1B" points="121.466,46.894 135.074,34.918 134.978,34.656 121.37,46.633 		"/>
		<polygon fill="#F9AC1B" points="121.563,47.156 135.171,35.179 135.074,34.918 121.466,46.894 		"/>
		<polygon fill="#F9AC1B" points="121.659,47.417 135.267,35.44 135.171,35.179 121.563,47.156 		"/>
		<polygon fill="#F9AC1B" points="121.756,47.678 135.364,35.702 135.267,35.44 121.659,47.417 		"/>
		<polygon fill="#F9AC1B" points="121.852,47.94 135.46,35.963 135.364,35.702 121.756,47.678 		"/>
		<polygon fill="#FAAD1A" points="121.949,48.201 135.556,36.225 135.46,35.963 121.852,47.94 		"/>
		<polygon fill="#FAAD1A" points="122.045,48.462 135.653,36.486 135.556,36.225 121.949,48.201 		"/>
		<polygon fill="#FAAD1A" points="122.141,48.724 135.749,36.747 135.653,36.486 122.045,48.462 		"/>
		<polygon fill="#FAAD1A" points="122.238,48.985 135.846,37.009 135.749,36.747 122.141,48.724 		"/>
		<polygon fill="#FAAD1A" points="122.334,49.247 135.942,37.27 135.846,37.009 122.238,48.985 		"/>
		<path fill="#FAAD1A" d="M138.933,94.23c1.46,3.956,5.85,5.979,9.805,4.52l1.39-0.513c4.039-1.49,6.106-5.973,4.615-10.013
			L135.942,37.27l-13.608,11.977L138.933,94.23z"/>
		<path fill="#FAAD1A" d="M115.101,29.643l-0.096-0.261l-0.096-0.261l-0.096-0.261l-0.096-0.261l-0.096-0.261l-0.096-0.261
			l-0.096-0.261l-0.096-0.261l-0.096-0.261l-0.096-0.261l-0.096-0.261l-0.096-0.261l-0.096-0.261l-0.096-0.261l-0.096-0.261
			l-0.096-0.261l-0.096-0.261l-4.632-12.553c-4.037,1.787-7.379,5.133-9.028,9.602L75.256,88.77
			c-1.49,4.039,0.576,8.522,4.615,10.013l1.39,0.513c3.956,1.46,8.346-0.564,9.805-4.52L115.101,29.643z"/>
		<path fill="#FAAD1A" d="M118.317,20.927l2.949-7.991c-3.747-1.588-8.063-1.839-12.191-0.388c-0.081,0.034-0.165,0.063-0.245,0.099
			l4.632,12.553L118.317,20.927z"/>
		<polygon fill="#FAAD1A" points="118.317,20.927 113.461,25.2 113.558,25.462 118.128,21.44 		"/>
		<polygon fill="#FAAD1A" points="118.128,21.44 113.558,25.462 113.654,25.723 117.938,21.953 		"/>
		<polygon fill="#FAAD1A" points="117.938,21.953 113.654,25.723 113.751,25.985 117.749,22.465 		"/>
		<polygon fill="#FAAD1A" points="117.749,22.465 113.751,25.985 113.847,26.246 117.56,22.978 		"/>
		<polygon fill="#FAAD1A" points="117.56,22.978 113.847,26.246 113.944,26.507 117.371,23.491 		"/>
		<polygon fill="#FAAD1A" points="117.371,23.491 113.944,26.507 114.04,26.769 117.182,24.004 		"/>
		<polygon fill="#FAAD1A" points="117.182,24.004 114.04,26.769 114.137,27.03 116.992,24.517 		"/>
		<polygon fill="#FAAD1A" points="116.992,24.517 114.137,27.03 114.233,27.291 116.803,25.029 		"/>
		<polygon fill="#FAAD1A" points="116.803,25.029 114.233,27.291 114.329,27.553 116.614,25.542 		"/>
		<polygon fill="#FAAD1A" points="116.614,25.542 114.329,27.553 114.426,27.814 116.425,26.055 		"/>
		<polygon fill="#FAAD1A" points="116.425,26.055 114.426,27.814 114.522,28.075 116.235,26.568 		"/>
		<polygon fill="#FAAD1A" points="116.235,26.568 114.522,28.075 114.619,28.337 116.046,27.081 		"/>
		<polygon fill="#FAAD1A" points="116.046,27.081 114.619,28.337 114.715,28.598 115.857,27.593 		"/>
		<polygon fill="#FAAD1A" points="115.857,27.593 114.715,28.598 114.812,28.86 115.668,28.106 		"/>
		<polygon fill="#FAAD1A" points="115.668,28.106 114.812,28.86 114.908,29.121 115.479,28.619 		"/>
		<polygon fill="#FAAD1A" points="115.479,28.619 114.908,29.121 115.005,29.382 115.289,29.132 		"/>
		<polygon fill="#FAAD1A" points="115.005,29.382 115.101,29.643 115.289,29.132 		"/>
	</g>
</g>
</svg>
